<?xml version="1.0" encoding="iso-8859-1"?>
<!-- Uploaded to: SVG Repo, www.svgrepo.com, Generator: SVG Repo Mixer Tools -->
<svg fill="#000000" height="800px" width="800px" version="1.1" id="Capa_1" xmlns="http://www.w3.org/2000/svg" xmlns:xlink="http://www.w3.org/1999/xlink" 
	 viewBox="0 0 479.946 479.946" xml:space="preserve">
<g>
	<g id="XMLID_1841_">
		<path id="XMLID_1969_" d="M322.6,143.1L301,143c-3.3-17.7-10.3-34.9-20.8-50.4l15.4-15.3c5.5-5.5,5.6-14.5,0.1-20l-15.4-15.5
			c-5.5-5.5-14.5-5.6-20-0.1L244.8,57c-15.4-10.6-32.6-17.6-50.3-21.1l0.1-21.6c0-7.8-6.3-14.2-14.1-14.2L158.6,0
			c-7.8,0-14.2,6.3-14.2,14.1l-0.1,21.5c-17.8,3.3-35.1,10.2-50.7,20.6l-15-15.1c-5.5-5.5-14.5-5.6-20-0.1L43,56.6
			c-5.5,5.5-5.6,14.5-0.1,20l14.9,15c-10.7,15.5-17.9,32.8-21.3,50.7l-21-0.1c-7.8,0-14.2,6.3-14.2,14.1l-0.1,21.9
			c0,7.8,6.3,14.2,14.1,14.2l20.8,0.1c3.3,18,10.3,35.4,20.9,51.1l-14.7,14.6c-5.5,5.5-5.6,14.5-0.1,20l15.4,15.5
			c5.5,5.5,14.5,5.6,20,0.1l14.7-14.6c15.6,10.7,33,17.8,50.9,21.2l-0.1,20.8c0,7.8,6.3,14.2,14.1,14.2l21.9,0.1
			c7.8,0,14.2-6.3,14.2-14.1l0.1-21c17.9-3.4,35.2-10.4,50.8-21.1l14.9,15c5.5,5.5,14.5,5.6,20,0.1l16-15.4c5.5-5.5,5.6-14.5,0.1-20
			l-15-15.1c10.6-15.5,17.6-32.8,20.9-50.6l21.5,0.1c7.8,0,14.2-6.3,14.2-14.1l0.1-21.9C336.8,149.5,330.5,143.1,322.6,143.1z
			 M169.1,262.3c-52.2,0-94.5-42.3-94.5-94.5s42.3-94.5,94.5-94.5s94.5,42.3,94.5,94.5S221.2,262.3,169.1,262.3z"/>
		<path id="XMLID_1839_" d="M169.1,107.2c-33.5,0-60.6,27.1-60.6,60.6s27.1,60.6,60.6,60.6s60.6-27.1,60.6-60.6
			S202.5,107.2,169.1,107.2z M169.1,148.1c-10.9,0-19.7,8.9-19.7,19.7c0,5-4,9-9,9s-9-4-9-9c0-20.9,17-37.8,37.8-37.8c5,0,9,4,9,9
			S174.1,148.1,169.1,148.1z"/>
		<g id="XMLID_1838_">
			<path id="XMLID_1840_" d="M367.9,333c-19.8,0-36,16.1-36,36c0,4.8,3.9,8.6,8.6,8.6s8.6-3.9,8.6-8.6c0-10.4,8.4-18.8,18.8-18.8
				c4.8,0,8.6-3.9,8.6-8.6C376.5,336.8,372.6,333,367.9,333z"/>
			<path id="XMLID_1975_" d="M472.1,394.7l-13.3-5.7c2.7-12.3,2.9-25.2,0.3-38l13.5-5.4c5-2,7.5-7.7,5.4-12.7l-5.6-14
				c-2-5-7.7-7.5-12.7-5.4l-13.6,5.5c-7-10.9-16.1-20-26.5-26.9l5.8-13.6c2.1-5-0.2-10.7-5.1-12.8l-13.9-6c-5-2.1-10.7,0.2-12.8,5.1
				l-5.9,13.7c-12.2-2.7-25-2.9-37.6-0.4l-5.6-13.9c-2-5-7.7-7.5-12.7-5.4l-14,5.6c-5,2-7.5,7.7-5.4,12.7L318,291
				c-10.9,6.9-20,15.9-27,26.3l-13.7-5.9c-5-2.1-10.7,0.2-12.8,5.1l-6,13.9c-2.1,5,0.2,10.7,5.1,12.8l13.6,5.8
				c-2.7,12.2-3,25-0.6,37.8l-13.6,5.5c-5,2-7.5,7.7-5.4,12.7l5.6,14c2,5,7.7,7.5,12.7,5.4l13.5-5.4c7,11,16,20.2,26.4,27.2
				l-5.7,13.3c-2.1,5,0.2,10.7,5.1,12.8l13.9,6c5,2.1,10.7-0.2,12.8-5.1l5.7-13.2c12.3,2.8,25.2,3,38.1,0.5l5.3,13.3
				c2,5,7.7,7.5,12.7,5.4l14-5.6c5-2,7.5-7.7,5.4-12.7l-5.3-13.3c11-7,20.2-16.2,27.2-26.6l13.2,5.7c5,2.1,10.7-0.2,12.8-5.1l6-13.9
				C479.4,402.6,477.1,396.9,472.1,394.7z M367.9,426.6c-31.8,0-57.7-25.8-57.7-57.7c0-31.8,25.8-57.7,57.7-57.7
				s57.7,25.8,57.7,57.7C425.5,400.8,399.7,426.6,367.9,426.6z"/>
		</g>
	</g>
</g>
</svg>