<?xml version="1.0" encoding="UTF-8" standalone="no"?>
<svg
   width="23.999998"
   height="20.063021"
   version="1.1"
   id="svg10"
   xmlns="http://www.w3.org/2000/svg"
   xmlns:svg="http://www.w3.org/2000/svg">
  <defs
     id="defs2">
    <radialGradient
       id="radGrad"
       cx="248"
       cy="594"
       fx="239"
       fy="601"
       r="70"
       gradientTransform="matrix(0.05454351,0,0,0.08777647,-1.8287507,-39.187848)"
       gradientUnits="userSpaceOnUse">
      <stop
         offset="0"
         stop-color="#F60"
         id="stop1" />
      <stop
         offset="1"
         stop-color="#F60"
         stop-opacity="0"
         id="stop2" />
    </radialGradient>
  </defs>
  <path
     d="m 20.909599,2.1402553 c 1.806534,6.931475 0.5747,14.4434967 -2.761248,16.5446877 C 14.9305,19.691106 8.4217183,19.584702 5.0594623,19.030464 2.5700703,16.84567 1.2715883,9.3880203 2.0357113,4.0759933 7.2623803,-0.65197869 14.142407,1.3012983 20.909599,2.1402553"
     fill="#ffffff"
     id="path2"
     style="stroke-width:0.0584639" />
  <path
     d="M 7.2834273,1.5176153 C 4.2965083,8.9735113 7.1974873,18.071073 12.226546,17.874634 15.19008,17.757706 19.158607,12.867204 16.31434,1.4164723 L 7.2834273,1.5176153"
     fill="#2b1100"
     id="path3"
     style="stroke-width:0.0584639" />
  <path
     d="M 8.2013103,1.3504083 C 6.1334433,7.4481893 7.9633623,16.413622 11.722588,16.453962 16.269323,16.502482 16.75048,7.4341573 15.147401,1.4164723 L 8.2013103,1.3504123"
     fill="#552200"
     id="path4"
     style="stroke-width:0.0584639" />
  <path
     d="m 9.2957533,1.4281653 c -1.734623,3.989574 -0.413924,12.3534137 2.5092687,12.2698107 2.172517,-0.06373 3.748703,-6.8537187 1.843366,-12.2809187 l -4.3532197,0.01111"
     fill="#2b1100"
     id="path5"
     style="stroke-width:0.0584639" />
  <path
     d="m 13.023409,0.09460431 c 6.229324,0.64778 10.97659,2.80158799 10.97659,2.80158799 l -2.090083,-0.07308 1.250542,1.748654 c -4.105332,-2.838421 -6.727437,-2.902146 -11.35719,-2.978149 -4.0211437,-0.06607 -7.4149717,0.94653 -9.4033267,2.834328 -0.270104,0.844802 -0.409247,2.672967 -0.624979,3.421305 L -6.8664551e-7,3.0090283 c 0,0 6.09251898664551,-3.63528299 13.02340968664551,-2.91442399 M 4.8086523,18.971416 c 4.863024,0.515067 9.0998997,0.65538 13.5823237,-0.330905 0,0 -3.195635,1.367469 -6.591216,1.420671 -3.3955807,0.05379 -6.9911077,-1.089766 -6.9911077,-1.089766"
     id="path6"
     style="stroke-width:0.0584639" />
  <path
     d="m 11.645416,1.0335343 c -1.380917,0.316289 -2.7478017,0.201116 -4.1310567,0.297581 -1.862658,0.380015 -3.624175,1.151153 -5.234269,2.530316 l -0.456603,2.934301 c -0.01052,0.51039 -0.0058,1.027795 0.01286,1.547538 0.737229,-3.93111 18.1816757,-5.128449 19.8829747,-0.771138 -0.07074,-1.686098 -0.312197,-3.432413 -0.737814,-5.148328 l -7.67338,-1.289712 c -0.558915,-0.04853 -1.113152,-0.08302 -1.662712,-0.100558"
     opacity="0.2"
     id="path7"
     style="stroke-width:0.0584639" />
  <path
     d="m 8.4486123,10.00306 c -0.05028,4.216413 1.7989327,5.856325 3.5978657,5.768629 1.46335,-0.07074 2.775279,-2.217534 2.891622,-5.8820487 -0.626732,2.7185687 -1.574431,4.6396917 -3.176341,4.8203447 -1.672067,0.189423 -2.8191277,-2.277167 -3.3131467,-4.706925"
     fill="url(#radGrad)"
     id="path8"
     style="fill:url(#radGrad);stroke-width:0.0584639" />
  <path
     d="M 11.431438,0.80318631 C 9.6617373,0.90374431 9.2986763,4.7635283 9.3752643,7.0266643 c 0.0912,2.686999 0.9137897,5.3663977 2.1801167,5.3307347 1.263989,-0.03391 1.914692,-2.7951567 1.959709,-5.4944327 0.04034,-2.444959 -0.847141,-6.12935199 -2.083652,-6.05977999"
     id="path9"
     style="stroke-width:0.0584639" />
  <g
     fill="#ffffff"
     id="g10"
     transform="matrix(0.05846386,0,0,0.05846386,-1.3025757,-1.4786577)">
    <path
       d="m 126.58,241.04 c 36.33,9.14 79.06,9.14 79.06,9.14 0,0 -51.28,20.11 -79.06,16.46"
       id="path10" />
    <circle
       cx="272.07001"
       cy="108.88"
       r="17.860001"
       id="circle10" />
  </g>
</svg>
