<?xml version="1.0" encoding="utf-8"?>

<!DOCTYPE svg PUBLIC "-//W3C//DTD SVG 1.1//EN" "http://www.w3.org/Graphics/SVG/1.1/DTD/svg11.dtd">
<!-- Uploaded to: SVG Repo, www.svgrepo.com, Generator: SVG Repo Mixer Tools -->
<svg height="800px" width="800px" version="1.1" id="_x32_" xmlns="http://www.w3.org/2000/svg" xmlns:xlink="http://www.w3.org/1999/xlink" 
	 viewBox="0 0 512 512"  xml:space="preserve">
<style type="text/css">
	.st0{fill:#000000;}
</style>
<g>
	<path class="st0" d="M249.117,68.486h13.785c4.27,0,7.748-3.468,7.748-7.748V46.609c0-1.024-0.202-2.039-0.591-2.983l-6.892-16.546
		c-1.209-2.886-4.033-4.766-7.166-4.766c-3.124,0-5.939,1.88-7.148,4.766l-6.892,16.546c-0.389,0.944-0.591,1.959-0.591,2.983
		v14.129C241.369,65.017,244.828,68.486,249.117,68.486z"/>
	<path class="st0" d="M380.598,323.453v-4.747c0-8.623-6.989-15.621-15.611-15.621h-6.328v-31.901
		c3.441-2.463,5.718-6.478,5.718-11.04c0-7.51-6.081-13.59-13.581-13.59h-5.419v-26.793c7.775-0.15,14.032-6.478,14.032-14.278
		c0-6.557-4.439-12.02-10.44-13.723c-1.562-43.18-32.546-78.85-73.502-87.569c1.183-0.98,1.968-2.444,1.968-4.113
		c0-2.938-2.392-5.33-5.331-5.33h-0.865V83.4h0.865c2.939,0,5.331-2.383,5.331-5.331c0-2.947-2.392-5.33-5.331-5.33h-32.184
		c-2.947,0-5.348,2.383-5.348,5.33c0,2.948,2.401,5.331,5.348,5.331h0.857v11.348h-0.857c-2.947,0-5.348,2.392-5.348,5.33
		c0,1.668,0.785,3.133,1.978,4.113c-40.965,8.718-71.941,44.389-73.512,87.569c-6.009,1.703-10.44,7.166-10.44,13.723
		c0,7.8,6.266,14.128,14.04,14.278v26.793h-5.418c-7.5,0-13.59,6.08-13.59,13.59c0,4.563,2.268,8.569,5.728,11.031v31.91h-6.328
		c-8.631,0-15.629,6.998-15.629,15.621v4.747H0v19.945v13.299v99.738v16.634v16.617h512V473.07v-16.634v-99.738v-13.299v-19.945
		H380.598z M56.118,423.192H37.824v-29.926h18.294V423.192z M104.319,423.192H86.034v-29.926h18.286V423.192z M305.79,219.796
		h19.229v26.758H305.79V219.796z M226.587,219.796h19.238v26.758h-19.238V219.796z M186.999,219.796h19.229v26.758h-19.229V219.796z
		 M167.054,456.435h-22.29v-99.738h22.29V456.435z M190.37,303.085h-16.776v-29.369h16.776V303.085z M214.418,456.435h-22.292
		v-99.738h22.292V456.435z M227.39,303.085h-16.785v-29.369h16.785V303.085z M261.781,456.435h-22.292v-99.738h22.292V456.435z
		 M264.402,303.085h-16.785v-29.369h16.785V303.085z M266.193,219.796h19.238v26.758h-19.238V219.796z M284.628,273.716h16.785
		v29.369h-16.785V273.716z M309.144,456.435h-22.292v-99.738h22.292V456.435z M321.649,273.716h16.766v29.369h-16.766V273.716z
		 M356.506,456.435h-22.292v-99.738h22.292V456.435z M425.985,423.192h-18.294v-29.926h18.294V423.192z M474.186,423.192H455.9
		v-29.926h18.286V423.192z"/>
</g>
</svg>