<?xml version="1.0" encoding="iso-8859-1"?>
<!-- Uploaded to: SVG Repo, www.svgrepo.com, Generator: SVG Repo Mixer Tools -->
<svg fill="#000000" height="800px" width="800px" version="1.1" id="Layer_1" xmlns="http://www.w3.org/2000/svg" xmlns:xlink="http://www.w3.org/1999/xlink" 
	 viewBox="0 0 512 512" xml:space="preserve">
<g>
	<g>
		<g>
			<path d="M375.468,371.2H344.85c-18.534-17.818-29.193-42.47-29.193-68.267c0-11.802,2.338-23.339,6.511-34.133H189.833
				c4.173,10.795,6.511,22.332,6.511,34.133c0,25.796-10.658,50.449-29.193,68.267h-30.618c-14.114,0-25.6,11.486-25.6,25.6
				s11.486,25.6,25.6,25.6h238.933c14.114,0,25.6-11.486,25.6-25.6S389.582,371.2,375.468,371.2z"/>
			<path d="M505.079,140.8c4.437-13.44,6.921-27.759,6.921-42.667c0-4.719-3.814-8.533-8.533-8.533H153.6
				c-4.719,0-8.533,3.814-8.533,8.533V115.2H8.533C3.814,115.2,0,119.014,0,123.733C0,184.9,49.766,234.667,110.933,234.667H153.6
				h13.466c5.359,5.18,10.121,10.88,14.097,17.067h149.683c3.977-6.187,8.73-11.887,14.089-17.067h30.532
				c53.845,0,100.369-31.411,122.581-76.8H162.133V140.8H505.079z M145.067,149.333V217.6h-34.133
				c-48.879,0-89.156-37.555-93.483-85.333h127.616V149.333z"/>
		</g>
	</g>
</g>
</svg>