<svg xmlns="http://www.w3.org/2000/svg" width="24" height="24" viewBox="0 0 24 24">
  <g id="Group_2420" data-name="Group 2420" transform="translate(-913.861 -62.024)">
    <path id="Path_5535" data-name="Path 5535" d="M914.069,86.024a.2.2,0,0,0,.072-.013l1.43-.53.048.048a.286.286,0,0,0,.311.061l3.2-1.342a.28.28,0,0,0,.131-.071l14.579-14.6.112.113a.292.292,0,0,0,.412,0l1.522-1.525a.291.291,0,0,0,0-.412l-.1-.1,1.338-1.341a2.51,2.51,0,0,0-3.547-3.553L932.243,64.1l-.187-.188a.291.291,0,0,0-.412,0l-1.522,1.524a.292.292,0,0,0,0,.412l.162.161L915.7,80.614a.289.289,0,0,0-.071.131l-1.34,3.208a.286.286,0,0,0,.061.311l.047.047-.528,1.434a.208.208,0,0,0,.194.28ZM931.85,64.531l3.419,3.424-1.111,1.112-3.419-3.425Zm-15.844,16.8,2.543,2.547-2.663,1.116-.994-1Z" transform="translate(0 0)" fill="#1e1e1e"/>
  </g>
</svg>
