<?xml version="1.0" encoding="utf-8"?><!-- Uploaded to: SVG Repo, www.svgrepo.com, Generator: SVG Repo Mixer Tools -->
<svg fill="#000000" width="800px" height="800px" viewBox="0 0 16 16" id="forum-16px" xmlns="http://www.w3.org/2000/svg">
  <path id="Path_101" data-name="Path 101" d="M-7.5,16a.48.48,0,0,1-.158-.026L-10,15.193A5.971,5.971,0,0,1-13,16a6.006,6.006,0,0,1-6-6,6.006,6.006,0,0,1,6-6,6.006,6.006,0,0,1,6,6,5.976,5.976,0,0,1-.807,3l.782,2.345a.5.5,0,0,1-.121.512A.5.5,0,0,1-7.5,16ZM-13,5a5.006,5.006,0,0,0-5,5,5.006,5.006,0,0,0,5,5,4.984,4.984,0,0,0,2.668-.777.5.5,0,0,1,.426-.052l1.616.538-.539-1.615a.5.5,0,0,1,.052-.426A4.982,4.982,0,0,0-8,10,5.006,5.006,0,0,0-13,5Zm-9.342,7.974,3-1a.5.5,0,0,0,.317-.632.5.5,0,0,0-.633-.316l-2.051.683L-20.94,9.4a.5.5,0,0,0-.073-.454,4.96,4.96,0,0,1,.478-6.485A4.966,4.966,0,0,1-17,1a4.966,4.966,0,0,1,3.535,1.464.5.5,0,0,0,.707,0,.5.5,0,0,0,0-.707A5.959,5.959,0,0,0-17,0a5.959,5.959,0,0,0-4.242,1.757,5.948,5.948,0,0,0-.727,7.569l-1.006,3.016a.5.5,0,0,0,.121.512A.5.5,0,0,0-22.5,13,.48.48,0,0,0-22.342,12.974Z" transform="translate(23)"/>
</svg>