<!DOCTYPE svg PUBLIC "-//W3C//DTD SVG 20010904//EN" "http://www.w3.org/TR/2001/REC-SVG-20010904/DTD/svg10.dtd"[]><svg version="1.0" xmlns="http://www.w3.org/2000/svg" width="24" height="24" viewBox="0 0 50.000000 50.000000" preserveAspectRatio="xMidYMid meet"><g transform="translate(0.000000,50.000000) scale(0.100000,-0.100000)" fill="#000000" stroke="none"><path d="M237 384 c-4 -4 -7 -20 -7 -35 l0 -28 -87 -3 -88 -3 0 -95 0 -95 195 0 195 0 0 95 0 95 -87 3 -87 3 -3 31 c-3 31 -17 45 -31 32z m-77 -124 c0 -13 7 -20 20 -20 13 0 20 -7 20 -20 0 -13 -7 -20 -20 -20 -13 0 -20 -7 -20 -20 0 -13 -7 -20 -20 -20 -13 0 -20 7 -20 20 0 13 -7 20 -20 20 -13 0 -20 7 -20 20 0 13 7 20 20 20 13 0 20 7 20 20 0 13 7 20 20 20 13 0 20 -7 20 -20z m186 -31 c10 -17 -13 -36 -27 -22 -12 12 -4 33 11 33 5 0 12 -5 16 -11z m70 0 c10 -17 -13 -36 -27 -22 -12 12 -4 33 11 33 5 0 12 -5 16 -11z" /></g></svg>