<?xml version="1.0" encoding="UTF-8"?>
<svg xmlns="http://www.w3.org/2000/svg" xmlns:xlink="http://www.w3.org/1999/xlink" width="24px" height="24px" viewBox="0 0 24 24" version="1.1">
<g id="surface1">
<path style=" stroke:none;fill-rule:nonzero;fill:rgb(0%,0%,0%);fill-opacity:1;" d="M 14.726562 11.78125 L 14.371094 12.132812 L 22.671875 20.433594 C 23.019531 20.78125 23.210938 21.246094 23.210938 21.734375 C 23.210938 22.226562 23.019531 22.6875 22.671875 23.035156 C 22.324219 23.382812 21.863281 23.574219 21.371094 23.574219 C 20.878906 23.574219 20.417969 23.382812 20.070312 23.035156 L 15.417969 18.382812 L 15.039062 18.761719 C 14.765625 19.035156 14.40625 19.183594 14.023438 19.183594 C 13.671875 19.183594 13.332031 19.054688 13.070312 18.820312 C 12.527344 18.335938 11.484375 17.402344 10.261719 16.246094 L 3.023438 23.480469 C 2.691406 23.816406 2.246094 24 1.773438 24 C 1.296875 24 0.855469 23.816406 0.519531 23.480469 C 0.183594 23.148438 0 22.703125 0 22.226562 C 0 21.753906 0.183594 21.308594 0.519531 20.976562 L 7.71875 13.777344 C 6.402344 12.449219 5.101562 11.058594 4.117188 9.824219 C 1.835938 6.960938 1.0625 3.660156 0.804688 1.949219 C 0.746094 1.566406 0.855469 1.179688 1.105469 0.890625 C 1.359375 0.59375 1.730469 0.425781 2.117188 0.425781 C 2.46875 0.425781 2.800781 0.5625 3.050781 0.816406 L 11.867188 9.628906 L 12.21875 9.273438 C 11.863281 8.09375 12.121094 6.792969 13.015625 5.898438 L 18.628906 0.285156 C 19.007812 -0.09375 19.625 -0.09375 20.003906 0.285156 C 20.382812 0.664062 20.382812 1.28125 20.003906 1.660156 L 15.074219 6.585938 L 15.558594 7.066406 L 20.484375 2.140625 C 20.863281 1.761719 21.480469 1.761719 21.859375 2.140625 C 22.238281 2.519531 22.238281 3.136719 21.859375 3.515625 L 16.933594 8.441406 L 17.414062 8.925781 L 22.339844 3.996094 C 22.722656 3.617188 23.335938 3.617188 23.714844 3.996094 C 24.09375 4.375 24.09375 4.992188 23.714844 5.371094 L 18.101562 10.984375 C 18.101562 10.984375 18.101562 10.984375 18.097656 10.984375 C 17.484375 11.601562 16.65625 11.9375 15.761719 11.9375 C 15.410156 11.9375 15.0625 11.882812 14.726562 11.78125 Z M 14.726562 11.78125 "/>
</g>
</svg>
