<?xml version="1.0" encoding="UTF-8"?>
<svg xmlns="http://www.w3.org/2000/svg" xmlns:xlink="http://www.w3.org/1999/xlink" width="24px" height="24px" viewBox="0 0 24 24" version="1.1">
<g id="surface1">
<path style=" stroke:none;fill-rule:nonzero;fill:rgb(0%,0%,0%);fill-opacity:1;" d="M 12 0 C 5.371094 0 0 5.371094 0 12 C 0 18.625 5.371094 24 12 24 C 18.628906 24 24 18.625 24 12 C 24 5.371094 18.628906 0 12 0 Z M 17.1875 14.28125 L 12.101562 14.28125 C 12.082031 14.28125 12.066406 14.277344 12.050781 14.277344 C 12.03125 14.277344 12.015625 14.28125 12 14.28125 C 11.542969 14.28125 11.167969 13.910156 11.167969 13.453125 L 11.167969 4.980469 C 11.167969 4.523438 11.542969 4.148438 12 4.148438 C 12.457031 4.148438 12.828125 4.523438 12.828125 4.980469 L 12.828125 12.621094 L 17.1875 12.621094 C 17.644531 12.621094 18.015625 12.992188 18.015625 13.453125 C 18.015625 13.910156 17.644531 14.28125 17.1875 14.28125 Z M 17.1875 14.28125 "/>
</g>
</svg>
