<?xml version="1.0" encoding="UTF-8"?>
<svg xmlns="http://www.w3.org/2000/svg" xmlns:xlink="http://www.w3.org/1999/xlink" width="24px" height="24px" viewBox="0 0 24 24" version="1.1">
<g id="surface1">
<path style=" stroke:none;fill-rule:nonzero;fill:rgb(12.941176%,12.941176%,12.941176%);fill-opacity:1;" d="M 13 7.007812 C 16.171875 7.007812 17.96875 9.105469 18.230469 11.640625 L 18.308594 11.640625 C 20.347656 11.640625 22 13.289062 22 15.320312 C 22 17.355469 20.347656 19.003906 18.308594 19.003906 L 7.695312 19.003906 C 5.65625 19.003906 4.003906 17.355469 4.003906 15.320312 C 4.003906 13.289062 5.65625 11.640625 7.695312 11.640625 L 7.773438 11.640625 C 8.039062 9.089844 9.832031 7.007812 13 7.007812 Z M 10 4 C 11.617188 4 13.050781 4.816406 13.898438 6.0625 C 13.609375 6.027344 13.308594 6.007812 13 6.007812 C 9.960938 6.007812 7.761719 7.726562 7.019531 10.316406 L 6.980469 10.460938 L 6.921875 10.699219 L 6.714844 10.738281 C 5.109375 11.074219 3.800781 12.238281 3.261719 13.765625 C 2.496094 13.167969 2 12.230469 2 11.179688 C 2 9.367188 3.46875 7.898438 5.28125 7.898438 L 5.351562 7.898438 C 5.742188 5.675781 7.683594 4 10 4 Z M 10 4 "/>
</g>
</svg>
